<svg version="1.1" id="Layer_1" xmlns="http://www.w3.org/2000/svg" xmlns:xlink="http://www.w3.org/1999/xlink" x="0px" y="0px"
	 width="100%" viewBox="0 0 96 96" enable-background="new 0 0 96 96" xml:space="preserve">
<path fill="none" opacity="1.000000" stroke="#000000" stroke-linecap="round" stroke-linejoin="round" stroke-width="3.000000"
	d="
M65.000000,24.000000 
	C66.109528,35.421837 60.154125,35.986431 50.980152,38.938313 
	C45.392654,40.736191 39.454594,41.489372 34.498123,44.997349 
	C26.967930,50.326889 25.411837,58.422058 27.128616,66.974182 
	C27.428358,68.467346 28.493843,70.673706 31.000000,70.500000 
"/>
<path fill="none" opacity="1.000000" stroke="#000000" stroke-linecap="round" stroke-linejoin="round" stroke-width="3.000000"
	d="
M26.500000,46.500000 
	C27.729315,43.265663 29.383778,40.203533 29.034115,36.496780 
	C27.725851,22.628012 43.298908,13.646865 55.523846,17.422800 
	C60.311275,18.901503 63.877090,21.978212 67.454346,25.053116 
	C72.300507,29.218740 70.626312,39.317181 62.563736,43.619446 
	C56.788250,46.701302 50.299225,47.215836 44.437393,49.861271 
	C42.487305,50.741333 40.386379,51.496990 38.528851,52.550854 
	C31.635754,56.461632 30.371563,63.006542 31.617958,69.978912 
	C32.690899,75.980972 37.973713,78.762794 43.043488,80.362144 
	C55.520966,84.298370 69.495079,74.610107 69.224022,62.494987 
	C69.060730,55.196392 68.453857,47.486134 72.000000,40.500000 
"/>
<path fill="none" opacity="1.000000" stroke="#000000" stroke-linecap="round" stroke-linejoin="round" stroke-width="6.000000"
	d="
M68.500000,51.500000 
	C64.482445,51.622646 60.508297,51.583420 56.468143,52.326878 
	C53.039459,52.957813 51.929752,54.114883 51.905838,57.499336 
	C51.880905,61.028881 50.622066,64.470131 47.465309,66.444534 
	C42.980598,69.249504 38.636581,67.066505 37.000000,61.500000 
"/>
<path fill="none" opacity="1.000000" stroke="#000000" stroke-linecap="round" stroke-linejoin="round" stroke-width="2.000000"
	d="
M64.500000,37.500000 
	C59.818130,41.270271 54.035519,42.313633 48.506100,44.019772 
	C42.647507,45.827480 36.569336,47.287380 32.500000,52.500000 
"/>
<path fill="none" opacity="1.000000" stroke="#000000" stroke-linecap="round" stroke-linejoin="round" stroke-width="6.000000"
	d="
M40.500000,23.500000 
	C47.280907,21.388058 52.442722,25.949665 51.250000,33.000000 
"/>
</svg>